<?xml version="1.0" encoding="iso-8859-1"?>
<!-- Generator: Adobe Illustrator 19.0.0, SVG Export Plug-In . SVG Version: 6.00 Build 0)  -->
<svg version="1.1" id="Capa_1" xmlns="http://www.w3.org/2000/svg" xmlns:xlink="http://www.w3.org/1999/xlink" x="0px" y="0px"
	 viewBox="0 0 512 512" style="enable-background:new 0 0 512 512;" xml:space="preserve">
<g>
	<g>
		<path d="M435.538,145.611C387.46,117.166,323.698,101.5,256,101.5c-10.768,0-21.607,0.405-32.215,1.203
			c-4.13,0.311-7.227,3.911-6.917,8.042c0.31,4.131,3.906,7.215,8.042,6.917c10.235-0.77,20.696-1.161,31.09-1.161
			c65.051,0,126.101,14.923,171.901,42.021C472.46,184.883,497,219.502,497,256c0,36.509-24.54,71.132-69.1,97.492
			C382.106,380.581,321.058,395.5,256,395.5c-44.133,0-87.327-7.032-124.914-20.336c-3.904-1.381-8.19,0.664-9.573,4.568
			c-1.382,3.905,0.663,8.19,4.568,9.573C165.256,403.171,210.181,410.5,256,410.5c67.705,0,131.466-15.661,179.539-44.098
			C484.846,337.234,512,298.026,512,256C512,213.986,484.846,174.783,435.538,145.611z"/>
	</g>
</g>
<g>
	<g>
		<path d="M199.429,112.755c-0.644-4.092-4.489-6.888-8.574-6.245c-53.146,8.355-101.256,27.251-135.469,53.208
			C19.152,187.209,0,220.502,0,256c0,46.476,33.849,89.96,92.867,119.302c1.073,0.533,2.211,0.786,3.333,0.786
			c2.757,0,5.411-1.526,6.722-4.163c1.844-3.709,0.332-8.21-3.377-10.054C45.815,335.158,15,296.57,15,256
			c0-30.625,17.1-59.786,49.452-84.331c32.274-24.486,77.992-42.364,128.732-50.34C197.276,120.685,200.072,116.847,199.429,112.755
			z"/>
	</g>
</g>
<g>
	<g>
		<path d="M423.318,166.266C378.884,139.978,319.462,125.5,255.999,125.5s-122.884,14.478-167.317,40.766
			C46.971,190.944,24,222.813,24,256c0,33.199,22.971,65.072,64.682,89.745C133.108,372.027,192.53,386.5,255.999,386.5
			c46.61,0,91.467-7.833,129.721-22.654c3.863-1.497,5.781-5.841,4.284-9.703c-1.496-3.861-5.841-5.78-9.702-4.284
			c-9.571,3.708-19.592,6.945-29.962,9.723c0.567-0.811,1.004-1.726,1.264-2.724l5.925-22.544c0.094-0.081,0.23-0.176,0.372-0.248
			l39.242-6.734c4.072-0.735,7.027-4.272,7.027-8.411v-0.02c0-1.307-0.291-2.548-0.815-3.66c2.41-1.001,4.299-3.079,4.988-5.717
			l5.926-22.545c0.093-0.081,0.229-0.176,0.372-0.248L453.875,280c4.075-0.732,7.033-4.27,7.033-8.412v-0.02
			c0-4.22-3.023-7.764-7.162-8.422l-39.077-6.372c-0.146-0.085-0.306-0.205-0.416-0.314l-5.907-22.827
			c-0.982-3.76-4.381-6.385-8.267-6.385h-0.881c-3.881,0-7.276,2.622-8.235,6.294l-6.172,22.601
			c-0.178,0.283-0.39,0.506-0.578,0.606l-35.573,5.817l-34.942-5.721l-5.662-21.802c-0.981-3.759-4.377-6.385-8.257-6.385h-0.52
			c-3.88,0-7.275,2.625-8.259,6.395l-5.66,21.792l-36.891,6.046c-4.167,0.663-7.19,4.207-7.19,8.427
			c0,1.721,0.509,3.326,1.385,4.673h-0.124c-3.88,0-7.275,2.625-8.259,6.395l-5.659,21.792l-36.898,6.047
			c-4.163,0.667-7.184,4.21-7.184,8.426c0,4.221,3.021,7.769,7.175,8.435l18.128,2.927l18.902,3.487l5.549,21.726
			c0.968,3.628,4.25,6.225,8,6.342l0.251,0.009c0.092,0.003,0.183,0.005,0.275,0.005h0.157c0.023,0,0.046,0,0.068,0
			c3.896,0,7.28-2.608,8.271-6.422l5.539-21.658l34.996-5.903l35.655,6.485c0.136,0.056,0.339,0.185,0.537,0.521l6.191,22.302
			c0.666,2.493,2.408,4.477,4.644,5.52c-26.061,5.966-54.084,9.073-82.859,9.073c-60.823,0-117.531-13.731-159.681-38.665
			C59.356,310.971,39,283.683,39,256c0-27.672,20.356-54.955,57.32-76.824c42.155-24.94,98.863-38.676,159.679-38.676
			c60.816,0,117.525,13.735,159.681,38.676C452.644,201.045,473,228.329,473,256c0,27.683-20.356,54.97-57.32,76.836
			c-0.959,0.568-1.927,1.129-2.901,1.685c-3.597,2.053-4.85,6.634-2.796,10.231c2.053,3.597,6.632,4.85,10.231,2.797
			c1.043-0.596,2.079-1.197,3.104-1.804C465.029,321.072,488,289.2,488,256C488,222.812,465.029,190.944,423.318,166.266z
			 M387.139,271.47c0.209-0.034,0.416-0.077,0.622-0.129c4.697-1.183,8.628-4.523,10.794-9.169c0.211-0.44,0.381-0.899,0.529-1.428
			l0.402-1.474l0.382,1.477c0.021,0.083,0.045,0.167,0.069,0.249c1.364,4.611,5.617,8.722,10.583,10.229
			c0.25,0.076,0.505,0.139,0.762,0.188l0.133,0.024c0.079,0.016,0.157,0.029,0.236,0.042l1.63,0.266l-1.691,0.29
			c-0.059,0.01-0.116,0.021-0.175,0.032l-0.149,0.03c-0.235,0.046-0.468,0.104-0.698,0.172c-5.145,1.533-9.329,5.593-10.66,10.344
			c-0.011,0.039-0.021,0.078-0.032,0.117l-0.393,1.494l-0.368-1.33c-0.133-0.538-0.319-1.058-0.559-1.555
			c-2.093-4.639-6.017-7.977-10.802-9.177c-0.159-0.04-0.32-0.075-0.483-0.104l-1.768-0.322L387.139,271.47z M384.225,286.751
			c0.136,0.056,0.339,0.186,0.537,0.522l6.167,22.215l-32.998-5.38c-0.146-0.085-0.307-0.206-0.417-0.315l-5.907-22.827
			c-0.014-0.053-0.033-0.104-0.048-0.157L384.225,286.751z M242.779,328.127c-1.705-4.848-5.861-8.409-10.883-9.304
			c0.075-0.017,0.147-0.034,0.213-0.051c0.034-0.008,0.128-0.032,0.162-0.041c5.097-1.351,8.959-4.922,10.51-9.601
			c1.572,4.71,5.423,8.256,10.558,9.617c0.102,0.026,0.203,0.051,0.316,0.076C248.626,319.719,244.475,323.278,242.779,328.127z
			 M256.958,304.179l-5.662-21.802c-0.219-0.838-0.563-1.615-1-2.323l16.263,2.625l18.903,3.487l5.55,21.726
			c0.189,0.709,0.469,1.378,0.821,1.997L256.958,304.179z M299.518,280.795c-1.704-4.849-5.86-8.41-10.883-9.305
			c0.075-0.017,0.147-0.034,0.213-0.051c0.034-0.008,0.128-0.032,0.162-0.041c5.097-1.351,8.959-4.922,10.51-9.602
			c1.572,4.71,5.423,8.257,10.559,9.617c0.101,0.026,0.202,0.051,0.315,0.076C305.366,272.385,301.214,275.945,299.518,280.795z
			 M327.475,304.082l-19.289,3.154l5.387-21.068l20.133-3.396l-5.654,20.703C327.875,303.758,327.662,303.982,327.475,304.082z
			 M331.015,319.497c-0.159-0.04-0.32-0.075-0.483-0.104l-1.769-0.322l1.638-0.268c0.208-0.034,0.415-0.077,0.619-0.128
			c4.699-1.183,8.632-4.524,10.8-9.174c0.192-0.405,0.353-0.827,0.487-1.286c0.013-0.045,0.026-0.091,0.039-0.137l0.401-1.472
			l0.382,1.475c0.021,0.084,0.045,0.168,0.069,0.252c1.367,4.612,5.621,8.721,10.586,10.227c0.219,0.066,0.439,0.122,0.663,0.168
			l0.197,0.038c0.09,0.018,0.179,0.034,0.269,0.049l1.63,0.266l-1.691,0.29c-0.059,0.01-0.267,0.051-0.325,0.062
			c-0.235,0.046-0.468,0.104-0.698,0.172c-5.143,1.532-9.326,5.591-10.659,10.341c-0.012,0.04-0.022,0.08-0.033,0.12l-0.393,1.493
			l-0.368-1.326c-0.131-0.539-0.317-1.058-0.556-1.554C339.726,324.038,335.8,320.698,331.015,319.497z"/>
	</g>
</g>
<g>
	<g>
		<path d="M270.679,219.374c-0.767-0.416-1.602-0.693-2.466-0.82l-72.166-10.659c-0.855-0.165-1.753-1.109-2.127-2.233
			l-12.857-46.531c-0.749-3.994-4.352-7.129-8.532-7.129c-3.231,0-6.307,1.925-8.027,5.023c-0.29,0.523-0.517,1.079-0.675,1.656
			l-12.886,46.986c-0.404,1.204-1.411,2.082-2.154,2.233l-35.717,5.371l-36.212,5.281c-1.069,0.156-2.092,0.541-2.999,1.129
			c-3.655,2.371-4.201,5.755-4.201,7.561c0,4.465,3.247,8.152,7.401,8.613l71.735,10.625c0.885,0.178,2.045,1.157,2.395,2.384
			l12.632,46.499c0.11,0.406,0.254,0.801,0.431,1.183c1.604,3.466,4.774,5.619,8.275,5.619c4.015,0,7.404-2.572,8.634-6.554
			c0.024-0.078,0.047-0.156,0.068-0.234l12.708-46.422c0.399-1.4,1.21-2.059,1.536-2.086c0.169-0.014,0.338-0.034,0.507-0.06
			l72.01-10.952c4.212-0.454,7.506-4.145,7.506-8.615C275.498,225.659,275.028,221.722,270.679,219.374z M193.938,231.948
			c-6.735,0.689-12.377,5.721-14.444,12.969l-6.942,25.358l-6.909-25.433c-1.918-6.732-7.694-12.02-14.373-13.158
			c-0.054-0.009-0.107-0.018-0.162-0.025l-29.948-4.436l29.964-4.506c0.048-0.007,0.097-0.015,0.145-0.023
			c6.487-1.106,11.995-6.085,14.033-12.685c0.023-0.076,0.045-0.152,0.066-0.229l7.037-25.658l7.093,25.672
			c0.02,0.072,0.041,0.145,0.063,0.216c2.048,6.629,7.569,11.61,14.064,12.688c0.044,0.008,0.089,0.015,0.133,0.021l30.872,4.56
			L193.938,231.948z"/>
	</g>
</g>
<g>
	<g>
		<path d="M428.893,204.731c-1.062-2.557-3.34-4.319-5.985-4.71l-37.458-6.478l-5.745-22.482c-0.209-0.818-0.556-1.596-1.023-2.299
			c-1.604-2.411-4.3-3.794-7.393-3.794c-4.449,0-7.93,2.675-8.673,6.431l-5.643,22.082l-18.903,3.497l-18.831,3.03
			c-2.709,0.366-5.04,2.164-6.104,4.787c-1.148,2.83-0.862,7.102,1.907,9.793c1.1,1.068,2.501,1.774,4.014,2.022l37.801,6.193
			c0.01,0.004,0.02,0.008,0.028,0.012l5.725,22.063c0.325,1.743,1.206,3.324,2.549,4.542c1.598,1.451,3.767,2.256,5.968,2.256
			c0.188,0,0.375-0.006,0.562-0.018c4.018-0.214,7.248-2.893,8.063-6.6l5.79-22.313l37.46-6.136
			c1.552-0.254,2.984-0.989,4.095-2.102C429.811,211.79,430.054,207.532,428.893,204.731z M381.34,208.298
			c-4.954,1.497-8.709,5.216-10.136,10.014c-1.472-4.947-5.462-8.7-10.765-10.089c-0.094-0.024-0.188-0.047-0.282-0.068
			c5.085-0.92,9.453-4.792,11.047-9.841c1.58,5.019,5.82,8.902,10.701,9.837C381.715,208.193,381.526,208.242,381.34,208.298z"/>
	</g>
</g>
<g>
</g>
<g>
</g>
<g>
</g>
<g>
</g>
<g>
</g>
<g>
</g>
<g>
</g>
<g>
</g>
<g>
</g>
<g>
</g>
<g>
</g>
<g>
</g>
<g>
</g>
<g>
</g>
<g>
</g>
</svg>
